<svg xmlns="http://www.w3.org/2000/svg" viewBox="103.46 87.53 79.76 83.51" role="img" aria-label="PanPanTech 攀攀科技"><path fill="#005BAC" d="M 152.53125 130.039062 C 151.375 130.039062 150.433594 129.097656 150.433594 127.941406 C 150.433594 126.78125 151.375 125.84375 152.53125 125.84375 C 153.691406 125.84375 154.632812 126.78125 154.632812 127.941406 C 154.632812 129.097656 153.691406 130.039062 152.53125 130.039062 M 140.769531 121.082031 C 140.769531 117.863281 143.378906 115.253906 146.597656 115.253906 C 149.8125 115.253906 152.425781 117.863281 152.425781 121.082031 C 152.425781 124.300781 149.8125 126.910156 146.597656 126.910156 C 143.378906 126.910156 140.769531 124.300781 140.769531 121.082031 M 144.355469 112.355469 C 136.84375 112.355469 130.753906 118.445312 130.753906 125.957031 C 130.753906 133.46875 136.84375 139.558594 144.355469 139.558594 C 151.867188 139.558594 157.957031 133.46875 157.957031 125.957031 C 157.957031 118.445312 151.867188 112.355469 144.355469 112.355469 "/><path fill="#005BAC" d="M 107.460938 118.796875 L 130.480469 118.796875 L 130.480469 132.914062 L 107.460938 132.914062 Z M 107.460938 118.796875 "/><path fill="#005BAC" d="M 112.113281 122.300781 C 111.988281 123.453125 111.914062 124.617188 111.914062 125.800781 C 111.902344 138.828125 111.949219 151.855469 111.972656 164.882812 C 111.976562 165.519531 112.03125 166.15625 112.074219 167.039062 C 112.609375 166.703125 112.863281 166.601562 113.046875 166.421875 C 117.054688 162.425781 121.089844 158.460938 125.011719 154.382812 C 125.628906 153.742188 125.996094 152.597656 126.003906 151.679688 C 126.085938 143.085938 126.003906 134.492188 126.089844 125.898438 C 126.101562 124.664062 126.230469 123.460938 126.464844 122.300781 Z M 112.113281 122.300781 "/><path fill="#005BAC" d="M 175.476562 116.652344 C 170.890625 101.464844 155.464844 91.53125 140.050781 93.835938 C 127.300781 95.738281 117.210938 104.511719 113.476562 115.972656 L 129.03125 115.972656 C 132.007812 111.378906 137 108.261719 142.914062 107.757812 C 152.253906 106.960938 160.636719 113.441406 162.382812 122.808594 C 163.9375 131.148438 159.550781 139.171875 151.746094 142.617188 C 147.113281 144.558594 143.25 143.914062 143.25 143.914062 L 143.246094 143.914062 C 141.4375 143.566406 139.621094 143.25 137.800781 142.984375 C 137.222656 142.902344 136.402344 142.992188 136.015625 143.351562 C 132.765625 146.359375 129.597656 149.449219 126.175781 152.730469 C 127.023438 153.332031 127.332031 153.585938 127.671875 153.792969 C 139.292969 160.796875 153.738281 159.769531 164.820312 151.140625 C 174.785156 143.375 179.21875 129.035156 175.476562 116.652344 "/></svg>